# xmcd
# 
# Track frame offsets:
#     150
#     9487
#     20255
#     33474
#     45807
#     58837
#     70903
#     82163
#     97117
#     107111
# 
# Disc length: 1598
# 
# Revision: 0
# Processed by: cddbd v1.5.2PL0 Copyright (c) Steve Scherf et al.
# Submitted via: fre:ac v1.0.27
# 
DISCID=7c063c0a
DTITLE=Charley Pride - Charley Pride
DYEAR=2006
DGENRE=Country
TTITLE0=Kaw-Liga
TTITLE1=Is Anybody Goin' to San Antone
TTITLE2=I'm Just Me
TTITLE3=Kiss an Angel Good Morning
TTITLE4=Burgers and Fries
TTITLE5=Crystal Chandeliers
TTITLE6=All I Have to Offer You (Is Me)
TTITLE7=(I'm So) Afraid of Losing You Again
TTITLE8=Just Between You and Me
TTITLE9=Mountain of Love
EXTD=
EXTT0=
EXTT1=
EXTT2=
EXTT3=
EXTT4=
EXTT5=
EXTT6=
EXTT7=
EXTT8=
EXTT9=
PLAYORDER=
